<svg width="360" height="88" viewBox="0 0 360 88" fill="none" xmlns="http://www.w3.org/2000/svg">
  <rect x="2" y="8" width="72" height="72" rx="22" fill="#0F2348"/>
  <path d="M23 55C29 63 42 67 53 62C59 59 62 54 62 48C62 38 53 35 44 33C35 31 29 29 29 23C29 16 37 12 45 12C54 12 61 15 67 20" stroke="#1D5CFF" stroke-width="7" stroke-linecap="round"/>
  <path d="M14 32C20 24 31 21 40 24C47 26 51 31 51 37C51 47 40 50 31 52C22 54 15 57 15 64C15 71 24 76 34 76C44 76 53 72 61 64" stroke="#FF8A24" stroke-width="7" stroke-linecap="round"/>
  <circle cx="58" cy="26" r="4" fill="#FFC940"/>
  <text x="92" y="37" fill="#0F2348" font-family="Inter, Arial, sans-serif" font-size="14" font-weight="700" letter-spacing="3">SWIFT</text>
  <text x="92" y="61" fill="#0F2348" font-family="Cormorant Garamond, Georgia, serif" font-size="30" font-weight="700">Book Marketing</text>
</svg>