<svg xmlns="http://www.w3.org/2000/svg" viewBox="0 0 520 200" fill="none">
  <g transform="translate(140,0) scale(0.85)">
    <path fill="#001d43" d="M120 8c-18 22-28 48-28 72 0 8 1 15 3 22 8-28 22-48 25-52 3 4 17 24 25 52 2-7 3-14 3-22 0-24-10-50-28-72z"/>
    <path fill="#001d43" d="M92 42c-22 18-38 42-42 68 14-18 28-28 42-34-4 12-6 26-6 40 0 6 .5 12 1.5 17 10-22 20-36 24.5-42 4.5 6 14.5 20 24.5 42 1-5 1.5-11 1.5-17 0-14-2-28-6-40 14 6 28 16 42 34-4-26-20-50-42-68-12 10-24 18-40 18s-28-8-40-18z"/>
    <path fill="#fc6e06" d="M28 78c22 8 48 18 72 42-8-28-20-48-32-62-18 4-30 12-40 20zm184 0c-22 8-48 18-72 42 8-28 20-48 32-62 18 4 30 12 40 20z"/>
    <path fill="#fc6e06" d="M18 108c28 6 58 16 90 42-6-24-16-42-28-56-26 2-44 8-62 14zm204 0c-28 6-58 16-90 42 6-24 16-42 28-56 26 2 44 8 62 14z"/>
    <path fill="#fc6e06" d="M22 132c32 4 62 12 98 28-4-18-12-32-22-44-30 2-52 8-76 16zm196 0c-32 4-62 12-98 28 4-18 12-32 22-44 30 2 52 8 76 16z"/>
    <path fill="#fc6e06" d="M108 148c4 4 8 6 12 6s8-2 12-6c-4 8-8 12-12 12s-8-4-12-12z"/>
  </g>
  <text x="260" y="168" text-anchor="middle" font-family="Michroma, Montserrat, sans-serif" font-size="42" font-weight="400" letter-spacing="0.12em" fill="#001d43">SWIFT</text>
  <text x="260" y="192" text-anchor="middle" font-family="Montserrat, sans-serif" font-size="14" font-weight="600" letter-spacing="0.28em" fill="#fc6e06">BOOK MARKETING</text>
</svg>
